<svg width="1398" height="625" viewBox="0 0 1398 625" fill="none" xmlns="http://www.w3.org/2000/svg">
<rect width="1398" height="625" fill="#000C2D"/>
<path d="M1093.22 254.384H1054.12V456.281C1066.89 484.371 1099.87 485.01 1114.77 481.818V446.705C1100.09 452.451 1094.29 444.311 1093.22 439.523V254.384Z" fill="#006591"/>
<path d="M1008.63 254.384H969.532V456.281C982.3 484.371 1015.28 485.01 1030.18 481.818V446.705C1015.5 452.451 1009.7 444.311 1008.63 439.523V254.384Z" fill="#0089C4"/>
<path d="M938.418 479.424H899.315V321.418H938.418V479.424Z" fill="#00A7D4"/>
<path d="M918.469 303.862C914.479 311.843 868.992 251.191 918.468 251.192C967.945 251.193 938.419 299.075 918.469 303.862Z" fill="#00A7D4"/>
<path d="M767.882 254.384H726.386V480.222H767.882V434.735L784.641 417.977L823.743 480.222H871.624L811.773 389.248L871.624 322.215H823.743L767.882 384.46V254.384Z" fill="#00B9D8"/>
<path d="M697.209 284.924L678.855 320.037C666.087 306.47 597.457 284.924 591.073 320.037C584.689 355.149 624.794 344.177 678.855 373.288C699.603 384.46 723.543 447.287 669.278 476.232C622.066 501.414 560.482 470.596 540 455.699L561.547 418.991C565.537 425.907 583.572 440.697 623.792 444.527C674.068 449.315 661.43 402.117 615.811 394.252C569.526 386.272 506.484 335.997 561.547 284.924C605.597 244.066 670.343 267.9 697.209 284.924Z" fill="#00D5DC"/>
<path d="M1127.91 348.476C1148.65 292.989 1205.21 284.529 1230.89 287.234C1240.98 281.922 1237.9 275.182 1235.1 272.477C1223.33 267.164 1226.11 267.188 1225.41 264.237C1227.66 249.48 1242.57 247.39 1249.81 248.128C1267.74 248.128 1259.62 277.15 1254.01 292.399C1313.56 337.408 1314.26 372.825 1308.65 393.485C1304.73 407.061 1295.81 410.455 1291.84 410.455C1265.5 470.664 1217.58 482.765 1197.97 482.765C1189.56 488.667 1185.82 489.651 1185.36 488.668C1180.31 487.487 1178.94 479.44 1179.88 476.734C1126.08 442.498 1130.95 388.566 1139.12 364.708C1126.79 364.708 1126.51 353.887 1127.91 348.476Z" fill="#005A81"/>
<path d="M1194.48 450.322C1167.07 443.57 1148.54 344.39 1225.4 365.545C1287.55 382.647 1238.56 461.179 1194.48 450.322Z" fill="#000C2D"/>
<path d="M365.5 150L363.5 158C366.7 158 372.167 173.667 374.5 181.5L383.5 183C383.9 173.8 371.667 157.167 365.5 150Z" fill="#0094BA"/>
<path d="M388 280C379.2 282.4 356.667 270.833 348.5 265.5C348.5 291.1 369.5 311.5 380 313.5C369.2 293.1 380.833 282.5 388 280Z" fill="#0094BA"/>
<path d="M316.533 339.675C315.999 339.446 315.488 339.221 315 339C315.376 339.094 315.896 339.325 316.533 339.675C329.677 345.317 356.199 353.431 368.5 366.5C363 368 350 369.5 345 366C339.716 357.394 322.668 343.043 316.533 339.675Z" fill="#0094BA"/>
<path d="M349.416 461.777L489.992 308.788C498.243 287.526 505.023 262.405 505.179 250.635C501.915 247.636 473.599 261.12 448.433 268.719L307.286 423.693C302.398 431.742 316.894 449.987 329.027 458.718C338.463 465.508 347.416 466 349.416 461.777Z" fill="#0089C4"/>
<path d="M490.285 253.878C493.247 262.118 500.386 264.565 503.431 264.436C504.846 262.437 505.348 253.992 505.179 250.635C503.749 248.674 493.274 252.445 490.285 253.878Z" fill="#0094BA"/>
<path d="M489.045 310.02C487.28 306.647 486.524 297.823 479.849 300.72C478.051 294.26 471.324 281.474 458.799 282.004C457.286 277.068 454.949 266.208 448.309 269.037C448.294 269.043 448.279 269.049 448.264 269.056C448.279 269.049 448.294 269.043 448.309 269.037C457.293 265.175 470.379 260.519 491.697 253.272C490.969 254.538 495.058 263.211 503.474 264.423L500.797 276.694L498.348 285.054L494.368 297.249L491.267 305.571L490.463 308.141L489.045 310.02Z" fill="#00D5DC"/>
<path d="M334.126 393.802L376.283 432.538L349.542 462.97C339.458 471.762 319.899 453.427 311.809 442.441C304.584 432.29 305.821 425.061 307.288 423.692L334.126 393.802Z" fill="#005A81"/>
<path d="M193.946 101C80.3464 89.3998 72.9464 188.166 83.4464 239C91.0465 200.6 122.446 192.167 135.446 193.5C182.946 200 165.113 250 148.946 277.5C131.346 293.1 118.946 322.333 114.946 335C93.7463 447 178.113 481.333 222.946 484.5H372.946C364.946 459.3 330.613 464.333 314.446 470C330.046 458 341.28 435 344.946 425C352.946 333.4 282.946 334.5 246.946 346.5C292.989 312.5 358.5 362 366 363.5C366 363.5 372 366.5 408.946 343C435.346 349.4 444.28 340.333 445.446 335C444.646 319.8 422.78 316.667 411.946 317C366.346 323.8 350.613 285.5 348.446 265.5C391.246 295.1 423.613 276.5 434.446 263.5C438.046 209.1 391.613 189.167 367.946 186C363.546 160.4 350.78 152 344.946 151C335.346 154.6 334.613 181.833 335.446 195C290.446 266 276.78 261.167 259.446 271C184.646 305.4 184.28 390.667 193.446 429C157.046 363.8 205.28 299.167 233.946 275C259.946 261 272.446 242.167 275.446 234.5C295.846 197.3 283.946 162 275.446 149V157.5C259.846 107.1 210.613 92.8333 187.946 92L193.946 101Z" fill="#00B9D8"/>
<path d="M141.946 169.5C90.7458 170.3 81.6124 216.167 83.4458 239C89.0454 204.6 116.446 194.333 129.446 193.5C182.246 194.7 167.554 251.5 144.5 279C121.3 299.4 112.833 329.833 110.5 345.5C100.9 456.3 189.613 485.167 233.946 483.5C186.346 474.7 161.446 427.833 154.946 405.5C136.946 363.9 160.446 334 195.946 270.5C220.446 195.5 168.779 171.833 141.946 169.5Z" fill="#00A7D4"/>
<path d="M192.5 101.5C121.7 93.1 93.5 129 87 159C112 115.5 168.167 110.167 190 115.5C295.6 146.3 261 225.667 230.5 261.5C172.1 314.3 173.667 378.833 182.5 402.5C174.5 334.5 215.333 287.833 236 275C303.2 235.4 290.167 171.5 276 146V157.5C264.8 109.1 211.5 93.6667 187.5 92L192.5 101.5Z" fill="#00D5DC"/>
<path d="M322.5 462.5C370.9 370.1 294.333 347.079 250 346.246C284.4 331.046 310.667 343.246 319.5 351.246C371.9 395.646 342.5 440.5 322.5 462.5Z" fill="#00D5DC"/>
</svg>
