<svg xmlns="http://www.w3.org/2000/svg" width="302" height="146" fill="none"><path fill="#0D213C" d="M222.1 55.5V111H253l.3-28.4.3-28.4 2.4-2.6c2.7-2.9 7.5-3.5 10.5-1.3 2.9 2.1 3.6 8.2 3.6 34.9V111h31.1l-.3-33.3c-.3-31.2-.4-33.5-2.4-37.7-2.5-5.5-8.1-10.5-13.1-11.9-10.4-2.9-23.2-.5-29.5 5.6l-2.8 2.7V0h-31zM33.1 27.1c-19.8 3.3-31.3 18-26.6 34.1C9.9 73 21.4 79.4 44.6 82.5c9.8 1.2 13.3 3.3 11.9 6.9-.9 2.3-5.3 3.6-12.5 3.6-8.3 0-13.3-2-15.5-6.1-1.3-2.6-1.8-2.8-5.7-2.3-2.3.3-8.2 1.1-13 1.7L1 87.5l3.1 6.2c1.8 3.6 4.7 7.5 7 9.3 17 13.4 49.5 13.2 65.8-.5 9.8-8.2 11-25.8 2.4-34.8-5.1-5.4-12.3-8-31.7-11.2-10.8-1.7-14.5-3.4-14.5-6.5 0-2.8 3.7-4.4 10.1-4.3 5.9.1 8.9 1.2 12.7 4.6 2.2 2.1 2.2 2.1 13.5.2 6.1-1 11.5-2 12-2.2 1.3-.7-3.5-8.3-7.7-12-9.2-8.4-24.5-11.8-40.6-9.2M128.3 29.5c-2.8 1.5-6.6 4.3-8.2 6.3l-3 3.7V29h-29v82H119l.3-28.4c.3-26.3.4-28.5 2.2-30.5 2.5-2.7 7.9-2.8 10.6-.1 1.9 1.9 2 3.3 2 30.5V111H165l.3-27.4c.3-26.1.4-27.6 2.4-30.3 2.8-3.8 9.1-4.4 12-1.2 1.8 2 1.9 4 2.2 30.5l.3 28.4h30.9V79.7c0-17.6-.5-33.2-1.1-35.7-2.4-10.8-9.3-16-22-16.8-9.8-.6-16.6 1.6-22.6 7.1l-4.4 4.1-3.3-3.6c-5-5.4-9-7.1-18.1-7.6-7.1-.3-8.6-.1-13.3 2.3"/><path fill="#DA251C" d="M1 120h300v26H1z"/><path fill="#F1F1F1" d="M7.816 140.746q-.726-.55-.351-1.113l.902-1.36q.445-.667 1.301-.07.657.457 1.71.949 1.068.481 2.24.481.819 0 1.581-.188.762-.187 1.16-.726.399-.54.399-1.278 0-.527-.176-.925a1.5 1.5 0 0 0-.574-.657 5 5 0 0 0-.82-.433 15 15 0 0 0-1.864-.598 23 23 0 0 1-2.203-.726 6.5 6.5 0 0 1-1.781-1.032 4.9 4.9 0 0 1-1.254-1.476q-.445-.82-.445-2.192 0-1.629 1.054-2.789t2.426-1.488a11.8 11.8 0 0 1 2.766-.328q1.382 0 2.847.422 1.477.422 2.227 1.054.738.622.363 1.125l-.949 1.278q-.48.656-1.29.105-.515-.351-1.417-.785a4.2 4.2 0 0 0-1.863-.434q-.691 0-1.278.118a2 2 0 0 0-1.02.562 1.5 1.5 0 0 0-.444 1.102q0 .632.328 1.031.327.387.726.586.398.187.809.316 1.265.41 2.262.727.996.305 1.84.68 1.17.527 1.792 1.054.621.527 1.02 1.442.41.914.41 2.179 0 1.875-1.195 3.106-1.196 1.219-2.66 1.57-1.455.363-2.836.363-2.04 0-3.317-.398a7.7 7.7 0 0 1-2.426-1.254M47.766 142q-.82 0-.82-.879v-15.047q0-.879.82-.879h1.78q.822 0 .821.879v15.047q0 .879-.82.879zm30.55-1.254q-.726-.55-.351-1.113l.902-1.36q.445-.667 1.301-.07.657.457 1.71.949 1.067.481 2.24.481.819 0 1.581-.188.762-.187 1.16-.726.399-.54.399-1.278 0-.527-.176-.925a1.5 1.5 0 0 0-.574-.657 5 5 0 0 0-.82-.433 15 15 0 0 0-1.864-.598 23 23 0 0 1-2.203-.726 6.5 6.5 0 0 1-1.781-1.032 4.9 4.9 0 0 1-1.254-1.476q-.445-.82-.445-2.192 0-1.629 1.054-2.789t2.426-1.488a11.8 11.8 0 0 1 2.766-.328q1.382 0 2.847.422 1.477.422 2.227 1.054.738.622.363 1.125l-.949 1.278q-.48.656-1.29.105-.515-.351-1.417-.785a4.2 4.2 0 0 0-1.863-.434q-.691 0-1.278.118a2 2 0 0 0-1.02.562 1.5 1.5 0 0 0-.445 1.102q0 .632.329 1.031.327.387.726.586.399.187.809.316 1.265.41 2.261.727.997.305 1.84.68 1.173.527 1.793 1.054.621.527 1.02 1.442.41.914.41 2.179 0 1.875-1.195 3.106-1.196 1.219-2.66 1.57-1.454.363-2.836.363-2.04 0-3.317-.398a7.7 7.7 0 0 1-2.426-1.254m38.532-12.551q-.879 0-.879-.761v-1.477q0-.762.879-.762h12.047q.878 0 .878.762v1.477q0 .76-.878.761h-4.313v13.16q0 .645-.586.645h-2.25q-.586 0-.586-.645v-13.16zM156.867 142q-.82 0-.82-.879v-15.047q0-.879.82-.879h10.055q.879 0 .879.762v1.383q0 .762-.879.762h-7.453v3.726h6.832q.879 0 .879.762v1.383q0 .76-.879.761h-6.832v4.36h7.828q.879 0 .879.761v1.383q0 .762-.879.762zm39 0q-.82 0-.82-.879v-15.047q0-.879.82-.879h3.399q.68 0 .972.938l3.176 10.277q.211.668.293 1.102.083.421.141 1.008h.07q.059-.586.141-1.008.081-.434.293-1.102l3.175-10.277q.294-.938.973-.938h3.398q.82 0 .821.879v15.047q0 .879-.821.879h-1.781q-.82 0-.82-.879v-9.68q0-.702.058-1.406h-.082l-3.386 11.016q-.294.95-1.008.949h-1.992q-.716 0-1.008-.949l-3.387-11.016h-.082q.059.704.059 1.406v9.68q0 .879-.821.879zm44.074 0q-.844 0-.55-.773l5.742-15.082q.363-.95 1.101-.95h1.641q.738 0 1.102.95l5.742 15.082q.292.773-.551.773h-1.863q-.774 0-1.078-.809l-1.196-3.152h-5.953l-1.195 3.152q-.305.809-1.078.809zm5.227-6.867h3.773l-1.441-3.727q-.258-.656-.316-.949a17 17 0 0 1-.106-.891h-.047q-.058.586-.117.891-.047.293-.305.949zm35.836 5.613q-.726-.55-.352-1.113l.903-1.36q.445-.667 1.3-.07.657.457 1.711.949a5.4 5.4 0 0 0 2.239.481q.82 0 1.582-.188.762-.187 1.16-.726.398-.54.398-1.278 0-.527-.175-.925a1.5 1.5 0 0 0-.575-.657 5 5 0 0 0-.82-.433 15 15 0 0 0-1.863-.598 23 23 0 0 1-2.203-.726 6.5 6.5 0 0 1-1.782-1.032 4.9 4.9 0 0 1-1.254-1.476q-.444-.82-.445-2.192 0-1.629 1.055-2.789t2.426-1.488a11.8 11.8 0 0 1 2.765-.328q1.383 0 2.848.422 1.476.422 2.226 1.054.74.622.364 1.125l-.95 1.278q-.48.656-1.289.105-.515-.351-1.418-.785a4.2 4.2 0 0 0-1.863-.434q-.692 0-1.277.118a2 2 0 0 0-1.02.562 1.5 1.5 0 0 0-.445 1.102q0 .632.328 1.031.328.387.727.586.398.187.808.316 1.266.41 2.262.727.996.305 1.84.68 1.172.527 1.793 1.054t1.019 1.442q.411.914.411 2.179 0 1.875-1.196 3.106-1.195 1.219-2.66 1.57a11.7 11.7 0 0 1-2.836.363q-2.039 0-3.316-.398a7.7 7.7 0 0 1-2.426-1.254"/></svg>